<?xml version="1.0" encoding="UTF-8" standalone="no"?>
<!DOCTYPE svg PUBLIC "-//W3C//DTD SVG 1.1//EN" "http://www.w3.org/Graphics/SVG/1.1/DTD/svg11.dtd">
<svg width="100%" height="100%" viewBox="0 0 5000 1000" version="1.1" xmlns="http://www.w3.org/2000/svg" xmlns:xlink="http://www.w3.org/1999/xlink" xml:space="preserve" xmlns:serif="http://www.serif.com/" style="fill-rule:evenodd;clip-rule:evenodd;stroke-linejoin:round;stroke-miterlimit:2;">
    <g id="Background" transform="matrix(16.0471,0,0,3.21051,-51.1162,-16.7335)">
        <rect x="3.185" y="5.212" width="311.583" height="311.477" style="fill:rgb(17,24,39);"/>
    </g>
    <g transform="matrix(1.82598,0,0,1.82598,2146.2,236.362)">
        <g transform="matrix(246.443,0,0,246.443,-853.626,226.529)">
            <path d="M0.111,-0.111L0,-0.111L0,-0.667L0.111,-0.667L0.111,-0.778L0.444,-0.778L0.444,-0.667L0.556,-0.667L0.556,-0.111L0.444,-0.111L0.444,-0L0.111,-0L0.111,-0.111L0.444,-0.111L0.444,-0.667L0.111,-0.667L0.111,-0.111Z" style="fill:rgb(239,68,68);fill-rule:nonzero;"/>
        </g>
        <g transform="matrix(246.443,0,0,246.443,-689.33,226.529)">
            <path d="M0.111,-0.222L0.444,-0.222L0.444,-0.444L0.222,-0.444L0.222,-0.556L0.444,-0.556L0.444,-0.444L0.556,-0.444L0.556,-0.222L0.444,-0.222L0.444,-0.111L0.111,-0.111L0.111,0.111L0,0.111L0,-0.556L0.111,-0.556L0.111,-0.444L0.222,-0.444L0.222,-0.333L0.111,-0.333L0.111,-0.222Z" style="fill:rgb(239,68,68);fill-rule:nonzero;"/>
        </g>
        <g transform="matrix(246.443,0,0,246.443,-525.034,226.529)">
            <path d="M0.111,-0.333L0.444,-0.333L0.444,-0.444L0.111,-0.444L0.111,-0.556L0.444,-0.556L0.444,-0.444L0.556,-0.444L0.556,-0.222L0.111,-0.222L0.111,-0.111L0.556,-0.111L0.556,-0L0.111,-0L0.111,-0.111L0,-0.111L0,-0.444L0.111,-0.444L0.111,-0.333Z" style="fill:rgb(239,68,68);fill-rule:nonzero;"/>
        </g>
        <g transform="matrix(246.443,0,0,246.443,-360.739,226.529)">
            <path d="M0,-0L0,-0.556L0.111,-0.556L0.111,-0.444L0.222,-0.444L0.222,-0.556L0.444,-0.556L0.444,-0.444L0.556,-0.444L0.556,-0.333L0.444,-0.333L0.444,-0.444L0.222,-0.444L0.222,-0.333L0.111,-0.333L0.111,-0L0,-0Z" style="fill:rgb(239,68,68);fill-rule:nonzero;"/>
        </g>
        <g transform="matrix(246.443,0,0,246.443,-196.443,226.529)">
            <path d="M0.111,-0.111L0,-0.111L0,-0.222L0.111,-0.222L0.111,-0.333L0.444,-0.333L0.444,-0.444L0.111,-0.444L0.111,-0.556L0.444,-0.556L0.444,-0.444L0.556,-0.444L0.556,-0L0.111,-0L0.111,-0.111L0.444,-0.111L0.444,-0.222L0.111,-0.222L0.111,-0.111Z" style="fill:rgb(239,68,68);fill-rule:nonzero;"/>
        </g>
        <g transform="matrix(246.443,0,0,246.443,-32.1478,226.529)">
            <path d="M0.278,-0L0.278,-0.111L0.167,-0.111L0.167,-0.444L0.056,-0.444L0.056,-0.556L0.167,-0.556L0.167,-0.778L0.278,-0.778L0.278,-0.556L0.389,-0.556L0.389,-0.444L0.278,-0.444L0.278,-0.111L0.5,-0.111L0.5,-0L0.278,-0Z" style="fill:rgb(239,68,68);fill-rule:nonzero;"/>
        </g>
        <g transform="matrix(246.443,0,0,246.443,132.148,226.529)">
            <path d="M0.111,-0.111L0,-0.111L0,-0.444L0.111,-0.444L0.111,-0.556L0.444,-0.556L0.444,-0.444L0.556,-0.444L0.556,-0.111L0.444,-0.111L0.444,-0L0.111,-0L0.111,-0.111L0.444,-0.111L0.444,-0.444L0.111,-0.444L0.111,-0.111Z" style="fill:rgb(239,68,68);fill-rule:nonzero;"/>
        </g>
        <g transform="matrix(246.443,0,0,246.443,296.443,226.529)">
            <path d="M0,-0L0,-0.556L0.111,-0.556L0.111,-0.444L0.222,-0.444L0.222,-0.556L0.444,-0.556L0.444,-0.444L0.556,-0.444L0.556,-0.333L0.444,-0.333L0.444,-0.444L0.222,-0.444L0.222,-0.333L0.111,-0.333L0.111,-0L0,-0Z" style="fill:rgb(239,68,68);fill-rule:nonzero;"/>
        </g>
        <g transform="matrix(246.443,0,0,246.443,460.739,226.529)">
            <path d="M0,-0L0,-0.778L0.111,-0.778L0.111,-0.111L0.556,-0.111L0.556,-0L0,-0Z" style="fill:rgb(239,68,68);fill-rule:nonzero;"/>
        </g>
        <g transform="matrix(246.443,0,0,246.443,625.034,226.529)">
            <path d="M0.111,-0.333L0.444,-0.333L0.444,-0.444L0.111,-0.444L0.111,-0.556L0.444,-0.556L0.444,-0.444L0.556,-0.444L0.556,-0.222L0.111,-0.222L0.111,-0.111L0.556,-0.111L0.556,-0L0.111,-0L0.111,-0.111L0,-0.111L0,-0.444L0.111,-0.444L0.111,-0.333Z" style="fill:rgb(239,68,68);fill-rule:nonzero;"/>
        </g>
        <g transform="matrix(246.443,0,0,246.443,789.33,226.529)">
            <path d="M0.222,-0L0.222,-0.111L0.111,-0.111L0.111,-0.222L0,-0.222L0,-0.556L0.111,-0.556L0.111,-0.222L0.222,-0.222L0.222,-0.111L0.333,-0.111L0.333,-0.222L0.444,-0.222L0.444,-0.556L0.556,-0.556L0.556,-0.222L0.444,-0.222L0.444,-0.111L0.333,-0.111L0.333,-0L0.222,-0Z" style="fill:rgb(239,68,68);fill-rule:nonzero;"/>
        </g>
        <g transform="matrix(246.443,0,0,246.443,953.626,226.529)">
            <path d="M0.111,-0.333L0.444,-0.333L0.444,-0.444L0.111,-0.444L0.111,-0.556L0.444,-0.556L0.444,-0.444L0.556,-0.444L0.556,-0.222L0.111,-0.222L0.111,-0.111L0.556,-0.111L0.556,-0L0.111,-0L0.111,-0.111L0,-0.111L0,-0.444L0.111,-0.444L0.111,-0.333Z" style="fill:rgb(239,68,68);fill-rule:nonzero;"/>
        </g>
        <g transform="matrix(246.443,0,0,246.443,1117.92,226.529)">
            <path d="M0.278,-0L0.278,-0.111L0.167,-0.111L0.167,-0.667L0.056,-0.667L0.056,-0.778L0.278,-0.778L0.278,-0.111L0.5,-0.111L0.5,-0L0.278,-0Z" style="fill:rgb(239,68,68);fill-rule:nonzero;"/>
        </g>
    </g>
</svg>
